<svg xmlns="http://www.w3.org/2000/svg" viewBox="0 0 197 222" width="197" height="222">
  <path d="M 56 29 L 68 29 L 68 35 L 74 35 L 74 29 L 86 29 L 98 29 L 98 35 L 104 35 L 104 29 L 116 29 L 128 29 L 128 35 L 134 35 L 134 29 L 146 29 L 146 41 L 140 41 L 140 47 L 146 47 L 146 59 L 146 71 L 140 71 L 140 77 L 146 77 L 146 89 L 146 101 L 140 101 L 140 107 L 146 107 L 146 119 L 146 131 L 140 131 L 140 137 L 146 137 L 146 149 L 146 161 L 140 161 L 140 167 L 146 167 L 146 179 L 146 191 L 140 191 L 140 197 L 146 197 L 146 209 L 134 209 L 134 203 L 128 203 L 128 209 L 116 209" fill="none" stroke="black" stroke-width="1.5" stroke-linecap="square" stroke-linejoin="miter"/>
  <line x1="98" y1="29" x2="104" y2="35" stroke="black" stroke-width="1.5" stroke-linecap="square"/>
  <line x1="98" y1="35" x2="104" y2="29" stroke="black" stroke-width="1.5" stroke-linecap="square"/>
  <line x1="146" y1="101" x2="140" y2="107" stroke="black" stroke-width="1.5" stroke-linecap="square"/>
  <line x1="140" y1="101" x2="146" y2="107" stroke="black" stroke-width="1.5" stroke-linecap="square"/>
  <line x1="146" y1="131" x2="140" y2="137" stroke="black" stroke-width="1.5" stroke-linecap="square"/>
  <line x1="140" y1="131" x2="146" y2="137" stroke="black" stroke-width="1.5" stroke-linecap="square"/>
  <line x1="146" y1="161" x2="140" y2="167" stroke="black" stroke-width="1.5" stroke-linecap="square"/>
  <line x1="140" y1="161" x2="146" y2="167" stroke="black" stroke-width="1.5" stroke-linecap="square"/>
  <line x1="55.625" y1="26" x2="55.625" y2="32" stroke="black" stroke-width="0.75" stroke-linecap="square"/>
  <line x1="45" y1="29" x2="53" y2="29" stroke="black" stroke-width="0.75" stroke-linecap="square"/>
  <line x1="49" y1="26" x2="53" y2="29" stroke="black" stroke-width="0.75" stroke-linecap="square"/>
  <line x1="49" y1="32" x2="53" y2="29" stroke="black" stroke-width="0.75" stroke-linecap="square"/>
  <line x1="86" y1="26" x2="86" y2="32" stroke="black" stroke-width="0.75" stroke-linecap="square"/>
  <line x1="116" y1="26" x2="116" y2="32" stroke="black" stroke-width="0.75" stroke-linecap="square"/>
  <line x1="149" y1="59" x2="143" y2="59" stroke="black" stroke-width="0.75" stroke-linecap="square"/>
  <line x1="149" y1="89" x2="143" y2="89" stroke="black" stroke-width="0.75" stroke-linecap="square"/>
  <line x1="149" y1="119" x2="143" y2="119" stroke="black" stroke-width="0.75" stroke-linecap="square"/>
  <line x1="149" y1="149" x2="143" y2="149" stroke="black" stroke-width="0.75" stroke-linecap="square"/>
  <line x1="149" y1="179" x2="143" y2="179" stroke="black" stroke-width="0.75" stroke-linecap="square"/>
  <line x1="115.625" y1="212" x2="115.625" y2="206" stroke="black" stroke-width="0.75" stroke-linecap="square"/>
  <text x="71" y="24" font-size="6" font-family="monospace" text-anchor="middle" dominant-baseline="middle">a</text>
  <text x="151" y="74" font-size="6" font-family="monospace" text-anchor="middle" dominant-baseline="middle">a</text>
  <text x="98.5" y="14" font-size="8" font-family="monospace" text-anchor="middle" dominant-baseline="middle">WaBW+WWaBBBW+W 5 2 1 0 1 0,-3/ 5,-3/
</text>
</svg>
