<svg xmlns="http://www.w3.org/2000/svg" viewBox="0 0 212 132" width="212" height="132">
  <path d="M 93 27 L 105 27 L 105 33 L 111 33 L 111 27 L 123 27 L 123 39 L 117 39 L 117 45 L 123 45 L 123 57 L 135 57 L 135 63 L 141 63 L 141 57 L 153 57 L 165 57 L 165 63 L 171 63 L 171 57 L 183 57 L 183 69 L 177 69 L 177 75 L 183 75 L 183 87 L 171 87 L 171 81 L 165 81 L 165 87 L 153 87 L 153 99 L 147 99 L 147 105 L 153 105 L 153 117 L 141 117 L 141 111 L 135 111 L 135 117 L 123 117 L 111 117 L 111 111 L 105 111 L 105 117 L 93 117 L 81 117 L 81 111 L 75 111 L 75 117 L 63 117 L 51 117 L 51 111 L 45 111 L 45 117 L 33 117 L 33 105 L 39 105 L 39 99 L 33 99 L 33 87 L 33 75 L 39 75 L 39 69 L 33 69 L 33 57" fill="none" stroke="black" stroke-width="1.5" stroke-linecap="square" stroke-linejoin="miter"/>
  <line x1="135" y1="57" x2="141" y2="63" stroke="black" stroke-width="1.5" stroke-linecap="square"/>
  <line x1="135" y1="63" x2="141" y2="57" stroke="black" stroke-width="1.5" stroke-linecap="square"/>
  <line x1="165" y1="57" x2="171" y2="63" stroke="black" stroke-width="1.5" stroke-linecap="square"/>
  <line x1="165" y1="63" x2="171" y2="57" stroke="black" stroke-width="1.5" stroke-linecap="square"/>
  <line x1="183" y1="69" x2="177" y2="75" stroke="black" stroke-width="1.5" stroke-linecap="square"/>
  <line x1="177" y1="69" x2="183" y2="75" stroke="black" stroke-width="1.5" stroke-linecap="square"/>
  <line x1="153" y1="99" x2="147" y2="105" stroke="black" stroke-width="1.5" stroke-linecap="square"/>
  <line x1="147" y1="99" x2="153" y2="105" stroke="black" stroke-width="1.5" stroke-linecap="square"/>
  <line x1="92.625" y1="24" x2="92.625" y2="30" stroke="black" stroke-width="0.75" stroke-linecap="square"/>
  <line x1="82" y1="27" x2="90" y2="27" stroke="black" stroke-width="0.75" stroke-linecap="square"/>
  <line x1="86" y1="24" x2="90" y2="27" stroke="black" stroke-width="0.75" stroke-linecap="square"/>
  <line x1="86" y1="30" x2="90" y2="27" stroke="black" stroke-width="0.75" stroke-linecap="square"/>
  <line x1="153" y1="54" x2="153" y2="60" stroke="black" stroke-width="0.75" stroke-linecap="square"/>
  <line x1="123" y1="120" x2="123" y2="114" stroke="black" stroke-width="0.75" stroke-linecap="square"/>
  <line x1="93" y1="120" x2="93" y2="114" stroke="black" stroke-width="0.75" stroke-linecap="square"/>
  <line x1="63" y1="120" x2="63" y2="114" stroke="black" stroke-width="0.75" stroke-linecap="square"/>
  <line x1="30" y1="87" x2="36" y2="87" stroke="black" stroke-width="0.75" stroke-linecap="square"/>
  <line x1="30" y1="56.625" x2="36" y2="56.625" stroke="black" stroke-width="0.75" stroke-linecap="square"/>
  <text x="168" y="92" font-size="6" font-family="monospace" text-anchor="middle" dominant-baseline="middle">a</text>
  <text x="138" y="122" font-size="6" font-family="monospace" text-anchor="middle" dominant-baseline="middle">a</text>
  <text x="78" y="122" font-size="6" font-family="monospace" text-anchor="middle" dominant-baseline="middle">b</text>
  <text x="28" y="72" font-size="6" font-family="monospace" text-anchor="middle" dominant-baseline="middle">b</text>
  <text x="106" y="14" font-size="8" font-family="monospace" text-anchor="middle" dominant-baseline="middle">W+W-BB+B+Wa-B+WaWWbW+WWb 7 1 1 3 1 1,3\
</text>
</svg>
