<svg xmlns="http://www.w3.org/2000/svg" viewBox="0 0 202 160" width="202" height="160">
  <path d="M 116 27 L 128 27 L 128 33 L 134 33 L 134 27 L 146 27 L 146 39 L 140 39 L 140 45 L 146 45 L 146 57 L 146 69 L 140 69 L 140 75 L 146 75 L 146 87 L 146 99 L 140 99 L 140 105 L 146 105 L 146 117 L 158 117 L 158 123 L 164 123 L 164 117 L 176 117 L 176 129 L 170 129 L 170 135 L 176 135 L 176 147 L 164 147 L 164 141 L 158 141 L 158 147 L 146 147 L 134 147 L 134 141 L 128 141 L 128 147 L 116 147 L 104 147 L 104 141 L 98 141 L 98 147 L 86 147 L 86 135 L 92 135 L 92 129 L 86 129 L 86 117 L 74 117 L 74 111 L 68 111 L 68 117 L 56 117 L 44 117 L 44 111 L 38 111 L 38 117 L 26 117" fill="none" stroke="black" stroke-width="1.5" stroke-linecap="square" stroke-linejoin="miter"/>
  <line x1="158" y1="117" x2="164" y2="123" stroke="black" stroke-width="1.5" stroke-linecap="square"/>
  <line x1="158" y1="123" x2="164" y2="117" stroke="black" stroke-width="1.5" stroke-linecap="square"/>
  <line x1="134" y1="147" x2="128" y2="141" stroke="black" stroke-width="1.5" stroke-linecap="square"/>
  <line x1="134" y1="141" x2="128" y2="147" stroke="black" stroke-width="1.5" stroke-linecap="square"/>
  <line x1="104" y1="147" x2="98" y2="141" stroke="black" stroke-width="1.5" stroke-linecap="square"/>
  <line x1="104" y1="141" x2="98" y2="147" stroke="black" stroke-width="1.5" stroke-linecap="square"/>
  <line x1="74" y1="117" x2="68" y2="111" stroke="black" stroke-width="1.5" stroke-linecap="square"/>
  <line x1="74" y1="111" x2="68" y2="117" stroke="black" stroke-width="1.5" stroke-linecap="square"/>
  <line x1="115.625" y1="24" x2="115.625" y2="30" stroke="black" stroke-width="0.75" stroke-linecap="square"/>
  <line x1="105" y1="27" x2="113" y2="27" stroke="black" stroke-width="0.75" stroke-linecap="square"/>
  <line x1="109" y1="24" x2="113" y2="27" stroke="black" stroke-width="0.75" stroke-linecap="square"/>
  <line x1="109" y1="30" x2="113" y2="27" stroke="black" stroke-width="0.75" stroke-linecap="square"/>
  <line x1="149" y1="57" x2="143" y2="57" stroke="black" stroke-width="0.75" stroke-linecap="square"/>
  <line x1="149" y1="87" x2="143" y2="87" stroke="black" stroke-width="0.75" stroke-linecap="square"/>
  <line x1="146" y1="150" x2="146" y2="144" stroke="black" stroke-width="0.75" stroke-linecap="square"/>
  <line x1="116" y1="150" x2="116" y2="144" stroke="black" stroke-width="0.75" stroke-linecap="square"/>
  <line x1="56" y1="120" x2="56" y2="114" stroke="black" stroke-width="0.75" stroke-linecap="square"/>
  <line x1="25.625" y1="120" x2="25.625" y2="114" stroke="black" stroke-width="0.75" stroke-linecap="square"/>
  <text x="151" y="72" font-size="6" font-family="monospace" text-anchor="middle" dominant-baseline="middle">a</text>
  <text x="151" y="102" font-size="6" font-family="monospace" text-anchor="middle" dominant-baseline="middle">b</text>
  <text x="81" y="132" font-size="6" font-family="monospace" text-anchor="middle" dominant-baseline="middle">b</text>
  <text x="41" y="122" font-size="6" font-family="monospace" text-anchor="middle" dominant-baseline="middle">a</text>
  <text x="101" y="14" font-size="8" font-family="monospace" text-anchor="middle" dominant-baseline="middle">W+WWaWb-B+W+WBB+Wb-BWa 5 1 0 0 1 1,0\
</text>
</svg>
