<svg xmlns="http://www.w3.org/2000/svg" viewBox="0 0 197 280" width="197" height="280">
  <path d="M 41 29 L 53 29 L 53 35 L 59 35 L 59 29 L 71 29 L 71 41 L 65 41 L 65 47 L 71 47 L 71 59 L 71 71 L 65 71 L 65 77 L 71 77 L 71 89 L 83 89 L 83 95 L 89 95 L 89 89 L 101 89 L 113 89 L 113 95 L 119 95 L 119 89 L 131 89 L 131 101 L 125 101 L 125 107 L 131 107 L 131 119 L 131 131 L 125 131 L 125 137 L 131 137 L 131 149 L 131 161 L 125 161 L 125 167 L 131 167 L 131 179 L 131 191 L 125 191 L 125 197 L 131 197 L 131 209 L 143 209 L 143 215 L 149 215 L 149 209 L 161 209 L 161 221 L 155 221 L 155 227 L 161 227 L 161 239 L 161 251 L 155 251 L 155 257 L 161 257 L 161 269" fill="none" stroke="black" stroke-width="1.5" stroke-linecap="square" stroke-linejoin="miter"/>
  <line x1="71" y1="41" x2="65" y2="47" stroke="black" stroke-width="1.5" stroke-linecap="square"/>
  <line x1="65" y1="41" x2="71" y2="47" stroke="black" stroke-width="1.5" stroke-linecap="square"/>
  <line x1="83" y1="89" x2="89" y2="95" stroke="black" stroke-width="1.5" stroke-linecap="square"/>
  <line x1="83" y1="95" x2="89" y2="89" stroke="black" stroke-width="1.5" stroke-linecap="square"/>
  <line x1="113" y1="89" x2="119" y2="95" stroke="black" stroke-width="1.5" stroke-linecap="square"/>
  <line x1="113" y1="95" x2="119" y2="89" stroke="black" stroke-width="1.5" stroke-linecap="square"/>
  <line x1="131" y1="101" x2="125" y2="107" stroke="black" stroke-width="1.5" stroke-linecap="square"/>
  <line x1="125" y1="101" x2="131" y2="107" stroke="black" stroke-width="1.5" stroke-linecap="square"/>
  <line x1="131" y1="131" x2="125" y2="137" stroke="black" stroke-width="1.5" stroke-linecap="square"/>
  <line x1="125" y1="131" x2="131" y2="137" stroke="black" stroke-width="1.5" stroke-linecap="square"/>
  <line x1="143" y1="209" x2="149" y2="215" stroke="black" stroke-width="1.5" stroke-linecap="square"/>
  <line x1="143" y1="215" x2="149" y2="209" stroke="black" stroke-width="1.5" stroke-linecap="square"/>
  <line x1="161" y1="221" x2="155" y2="227" stroke="black" stroke-width="1.5" stroke-linecap="square"/>
  <line x1="155" y1="221" x2="161" y2="227" stroke="black" stroke-width="1.5" stroke-linecap="square"/>
  <line x1="40.625" y1="26" x2="40.625" y2="32" stroke="black" stroke-width="0.75" stroke-linecap="square"/>
  <line x1="30" y1="29" x2="38" y2="29" stroke="black" stroke-width="0.75" stroke-linecap="square"/>
  <line x1="34" y1="26" x2="38" y2="29" stroke="black" stroke-width="0.75" stroke-linecap="square"/>
  <line x1="34" y1="32" x2="38" y2="29" stroke="black" stroke-width="0.75" stroke-linecap="square"/>
  <line x1="74" y1="59" x2="68" y2="59" stroke="black" stroke-width="0.75" stroke-linecap="square"/>
  <line x1="101" y1="86" x2="101" y2="92" stroke="black" stroke-width="0.75" stroke-linecap="square"/>
  <line x1="134" y1="119" x2="128" y2="119" stroke="black" stroke-width="0.75" stroke-linecap="square"/>
  <line x1="134" y1="149" x2="128" y2="149" stroke="black" stroke-width="0.75" stroke-linecap="square"/>
  <line x1="134" y1="179" x2="128" y2="179" stroke="black" stroke-width="0.75" stroke-linecap="square"/>
  <line x1="164" y1="239" x2="158" y2="239" stroke="black" stroke-width="0.75" stroke-linecap="square"/>
  <line x1="164" y1="269.375" x2="158" y2="269.375" stroke="black" stroke-width="0.75" stroke-linecap="square"/>
  <text x="56" y="24" font-size="6" font-family="monospace" text-anchor="middle" dominant-baseline="middle">a</text>
  <text x="76" y="74" font-size="6" font-family="monospace" text-anchor="middle" dominant-baseline="middle">a</text>
  <text x="136" y="194" font-size="6" font-family="monospace" text-anchor="middle" dominant-baseline="middle">b</text>
  <text x="166" y="254" font-size="6" font-family="monospace" text-anchor="middle" dominant-baseline="middle">b</text>
  <text x="98.5" y="14" font-size="8" font-family="monospace" text-anchor="middle" dominant-baseline="middle">Wa+BWa-BB+BBWWb-B+BWb 7 2 1 0 0 3,4+
</text>
</svg>
