<svg xmlns="http://www.w3.org/2000/svg" viewBox="0 0 149 130" width="149" height="130">
  <path d="M 33 29 L 45 29 L 45 35 L 51 35 L 51 29 L 63 29 L 75 29 L 75 35 L 81 35 L 81 29 L 93 29 L 93 41 L 87 41 L 87 47 L 93 47 L 93 59 L 93 71 L 87 71 L 87 77 L 93 77 L 93 89 L 105 89 L 105 95 L 111 95 L 111 89 L 123 89 L 123 101 L 117 101 L 117 107 L 123 107 L 123 119" fill="none" stroke="black" stroke-width="1.5" stroke-linecap="square" stroke-linejoin="miter"/>
  <line x1="75" y1="29" x2="81" y2="35" stroke="black" stroke-width="1.5" stroke-linecap="square"/>
  <line x1="75" y1="35" x2="81" y2="29" stroke="black" stroke-width="1.5" stroke-linecap="square"/>
  <line x1="93" y1="71" x2="87" y2="77" stroke="black" stroke-width="1.5" stroke-linecap="square"/>
  <line x1="87" y1="71" x2="93" y2="77" stroke="black" stroke-width="1.5" stroke-linecap="square"/>
  <line x1="32.625" y1="26" x2="32.625" y2="32" stroke="black" stroke-width="0.75" stroke-linecap="square"/>
  <line x1="22" y1="29" x2="30" y2="29" stroke="black" stroke-width="0.75" stroke-linecap="square"/>
  <line x1="26" y1="26" x2="30" y2="29" stroke="black" stroke-width="0.75" stroke-linecap="square"/>
  <line x1="26" y1="32" x2="30" y2="29" stroke="black" stroke-width="0.75" stroke-linecap="square"/>
  <line x1="63" y1="26" x2="63" y2="32" stroke="black" stroke-width="0.75" stroke-linecap="square"/>
  <line x1="96" y1="59" x2="90" y2="59" stroke="black" stroke-width="0.75" stroke-linecap="square"/>
  <line x1="126" y1="119.375" x2="120" y2="119.375" stroke="black" stroke-width="0.75" stroke-linecap="square"/>
  <text x="48" y="24" font-size="6" font-family="monospace" text-anchor="middle" dominant-baseline="middle">a</text>
  <text x="98" y="44" font-size="6" font-family="monospace" text-anchor="middle" dominant-baseline="middle">a</text>
  <text x="74.5" y="14" font-size="8" font-family="monospace" text-anchor="middle" dominant-baseline="middle">WaB+WaB-W+W 3 1 1 0 0 2,0/
</text>
</svg>
