<svg xmlns="http://www.w3.org/2000/svg" viewBox="0 0 168 192" width="168" height="192">
  <path d="M 57 29 L 69 29 L 69 35 L 75 35 L 75 29 L 87 29 L 99 29 L 99 35 L 105 35 L 105 29 L 117 29 L 117 41 L 111 41 L 111 47 L 117 47 L 117 59 L 117 71 L 111 71 L 111 77 L 117 77 L 117 89 L 117 101 L 111 101 L 111 107 L 117 107 L 117 119 L 117 131 L 111 131 L 111 137 L 117 137 L 117 149 L 105 149 L 105 143 L 99 143 L 99 149 L 87 149 L 87 161 L 81 161 L 81 167 L 87 167 L 87 179 L 75 179 L 75 173 L 69 173 L 69 179 L 57 179" fill="none" stroke="black" stroke-width="1.5" stroke-linecap="square" stroke-linejoin="miter"/>
  <line x1="99" y1="29" x2="105" y2="35" stroke="black" stroke-width="1.5" stroke-linecap="square"/>
  <line x1="99" y1="35" x2="105" y2="29" stroke="black" stroke-width="1.5" stroke-linecap="square"/>
  <line x1="117" y1="71" x2="111" y2="77" stroke="black" stroke-width="1.5" stroke-linecap="square"/>
  <line x1="111" y1="71" x2="117" y2="77" stroke="black" stroke-width="1.5" stroke-linecap="square"/>
  <line x1="117" y1="131" x2="111" y2="137" stroke="black" stroke-width="1.5" stroke-linecap="square"/>
  <line x1="111" y1="131" x2="117" y2="137" stroke="black" stroke-width="1.5" stroke-linecap="square"/>
  <line x1="105" y1="149" x2="99" y2="143" stroke="black" stroke-width="1.5" stroke-linecap="square"/>
  <line x1="105" y1="143" x2="99" y2="149" stroke="black" stroke-width="1.5" stroke-linecap="square"/>
  <line x1="56.625" y1="26" x2="56.625" y2="32" stroke="black" stroke-width="0.75" stroke-linecap="square"/>
  <line x1="46" y1="29" x2="54" y2="29" stroke="black" stroke-width="0.75" stroke-linecap="square"/>
  <line x1="50" y1="26" x2="54" y2="29" stroke="black" stroke-width="0.75" stroke-linecap="square"/>
  <line x1="50" y1="32" x2="54" y2="29" stroke="black" stroke-width="0.75" stroke-linecap="square"/>
  <line x1="87" y1="26" x2="87" y2="32" stroke="black" stroke-width="0.75" stroke-linecap="square"/>
  <line x1="120" y1="59" x2="114" y2="59" stroke="black" stroke-width="0.75" stroke-linecap="square"/>
  <line x1="120" y1="89" x2="114" y2="89" stroke="black" stroke-width="0.75" stroke-linecap="square"/>
  <line x1="120" y1="119" x2="114" y2="119" stroke="black" stroke-width="0.75" stroke-linecap="square"/>
  <line x1="56.625" y1="182" x2="56.625" y2="176" stroke="black" stroke-width="0.75" stroke-linecap="square"/>
  <text x="72" y="24" font-size="6" font-family="monospace" text-anchor="middle" dominant-baseline="middle">a</text>
  <text x="122" y="44" font-size="6" font-family="monospace" text-anchor="middle" dominant-baseline="middle">a</text>
  <text x="84" y="14" font-size="8" font-family="monospace" text-anchor="middle" dominant-baseline="middle">WaB+WaBWB+B-W+W 5 1 2 1 0 2,0/
</text>
</svg>
