<svg xmlns="http://www.w3.org/2000/svg" viewBox="0 0 144 218" width="144" height="218">
  <path d="M 60 27 L 72 27 L 72 33 L 78 33 L 78 27 L 90 27 L 90 39 L 84 39 L 84 45 L 90 45 L 90 57 L 90 69 L 84 69 L 84 75 L 90 75 L 90 87 L 90 99 L 84 99 L 84 105 L 90 105 L 90 117 L 90 129 L 84 129 L 84 135 L 90 135 L 90 147 L 90 159 L 84 159 L 84 165 L 90 165 L 90 177 L 90 189 L 84 189 L 84 195 L 90 195 L 90 207" fill="none" stroke="black" stroke-width="1.5" stroke-linecap="square" stroke-linejoin="miter"/>
  <line x1="90" y1="99" x2="84" y2="105" stroke="black" stroke-width="1.5" stroke-linecap="square"/>
  <line x1="84" y1="99" x2="90" y2="105" stroke="black" stroke-width="1.5" stroke-linecap="square"/>
  <line x1="90" y1="129" x2="84" y2="135" stroke="black" stroke-width="1.5" stroke-linecap="square"/>
  <line x1="84" y1="129" x2="90" y2="135" stroke="black" stroke-width="1.5" stroke-linecap="square"/>
  <line x1="90" y1="159" x2="84" y2="165" stroke="black" stroke-width="1.5" stroke-linecap="square"/>
  <line x1="84" y1="159" x2="90" y2="165" stroke="black" stroke-width="1.5" stroke-linecap="square"/>
  <line x1="59.625" y1="24" x2="59.625" y2="30" stroke="black" stroke-width="0.75" stroke-linecap="square"/>
  <line x1="49" y1="27" x2="57" y2="27" stroke="black" stroke-width="0.75" stroke-linecap="square"/>
  <line x1="53" y1="24" x2="57" y2="27" stroke="black" stroke-width="0.75" stroke-linecap="square"/>
  <line x1="53" y1="30" x2="57" y2="27" stroke="black" stroke-width="0.75" stroke-linecap="square"/>
  <line x1="93" y1="57" x2="87" y2="57" stroke="black" stroke-width="0.75" stroke-linecap="square"/>
  <line x1="93" y1="87" x2="87" y2="87" stroke="black" stroke-width="0.75" stroke-linecap="square"/>
  <line x1="93" y1="117" x2="87" y2="117" stroke="black" stroke-width="0.75" stroke-linecap="square"/>
  <line x1="93" y1="147" x2="87" y2="147" stroke="black" stroke-width="0.75" stroke-linecap="square"/>
  <line x1="93" y1="177" x2="87" y2="177" stroke="black" stroke-width="0.75" stroke-linecap="square"/>
  <line x1="93" y1="207.375" x2="87" y2="207.375" stroke="black" stroke-width="0.75" stroke-linecap="square"/>
  <text x="95" y="72" font-size="6" font-family="monospace" text-anchor="middle" dominant-baseline="middle">a</text>
  <text x="95" y="192" font-size="6" font-family="monospace" text-anchor="middle" dominant-baseline="middle">a</text>
  <text x="72" y="14" font-size="8" font-family="monospace" text-anchor="middle" dominant-baseline="middle">W+WWaBBBWa 5 1 1 0 0 1,0/
</text>
</svg>
